<svg width="201" height="38" viewBox="0 0 201 38" fill="Black" xmlns="http://www.w3.org/2000/svg">
<path d="M5.9312 37.6C4.83865 37.5988 3.771 37.2736 2.86327 36.6657C1.95555 36.0577 1.24851 35.1943 0.831592 34.1846C0.414669 33.1748 0.306581 32.0641 0.520998 30.993C0.735415 29.9218 1.26271 28.9383 2.03619 28.1668C3.23832 26.9676 5.2682 25.9287 5.27001 24.2309C5.27478 20.2891 2.16289 20.7943 2.16699 17.2341C2.1712 16.2386 2.56963 15.2854 3.2751 14.583C3.98056 13.8806 4.93559 13.4863 5.93117 13.4863C6.92675 13.4863 7.88178 13.8806 8.58724 14.583C9.29271 15.2854 9.69115 16.2386 9.69535 17.2341C9.69932 20.7942 6.58749 20.289 6.5922 24.2309C6.59401 25.9287 8.62395 26.9677 9.82602 28.1668C10.5995 28.9383 11.1268 29.9218 11.3412 30.9929C11.5556 32.0641 11.4475 33.1748 11.0306 34.1845C10.6137 35.1942 9.90672 36.0577 8.99902 36.6656C8.09131 37.2736 7.02368 37.5988 5.93114 37.6" fill="Black"/>
<path d="M5.9312 37.6C4.83865 37.5988 3.771 37.2736 2.86327 36.6657C1.95555 36.0577 1.24851 35.1943 0.831592 34.1846C0.414669 33.1748 0.306581 32.0641 0.520998 30.993C0.735415 29.9218 1.26271 28.9383 2.03619 28.1668C3.23832 26.9676 5.2682 25.9287 5.27001 24.2309C5.27478 20.2891 2.16289 20.7943 2.16699 17.2341C2.1712 16.2386 2.56963 15.2854 3.2751 14.583C3.98056 13.8806 4.93559 13.4863 5.93117 13.4863C6.92675 13.4863 7.88178 13.8806 8.58724 14.583C9.29271 15.2854 9.69115 16.2386 9.69535 17.2341C9.69932 20.7942 6.58749 20.289 6.5922 24.2309C6.59401 25.9287 8.62395 26.9677 9.82602 28.1668C10.5995 28.9383 11.1268 29.9218 11.3412 30.9929C11.5556 32.0641 11.4475 33.1748 11.0306 34.1845C10.6137 35.1942 9.90672 36.0577 8.99902 36.6656C8.09131 37.2736 7.02368 37.5988 5.93114 37.6" fill="Black"/>
<path d="M33.5078 16.7412C34.0529 17.6879 34.3051 18.775 34.2324 19.8649C34.1596 20.9549 33.7653 21.9988 33.0991 22.8647C32.433 23.7306 31.525 24.3795 30.4901 24.7294C29.4551 25.0793 28.3396 25.1145 27.2846 24.8305C25.645 24.3889 23.7302 23.1512 22.2584 23.9981C18.842 25.9651 20.8357 28.4071 17.75 30.1837C16.8857 30.6773 15.8611 30.8086 14.9003 30.5488C13.9395 30.289 13.1207 29.6593 12.623 28.7975C12.1253 27.9357 11.9893 26.9118 12.2447 25.95C12.5 24.9881 13.126 24.1665 13.9856 23.6649C17.0672 21.8811 18.1855 24.8284 21.5972 22.8535C23.067 22.0027 22.9517 19.7257 23.3894 18.0853C23.6709 17.0298 24.2591 16.0815 25.0797 15.3602C25.9002 14.639 26.9163 14.1772 27.9993 14.0333C29.0823 13.8895 30.1837 14.07 31.1641 14.552C32.1446 15.0339 32.96 15.7958 33.5074 16.7412" fill="Black"/>
<path d="M33.5078 16.7412C34.0529 17.6879 34.3051 18.775 34.2324 19.8649C34.1596 20.9549 33.7653 21.9988 33.0991 22.8647C32.433 23.7306 31.525 24.3795 30.4901 24.7294C29.4551 25.0793 28.3396 25.1145 27.2846 24.8305C25.645 24.3889 23.7302 23.1512 22.2584 23.9981C18.842 25.9651 20.8357 28.4071 17.75 30.1837C16.8857 30.6773 15.8611 30.8086 14.9003 30.5488C13.9395 30.289 13.1207 29.6593 12.623 28.7975C12.1253 27.9357 11.9893 26.9118 12.2447 25.95C12.5 24.9881 13.126 24.1665 13.9856 23.6649C17.0672 21.8811 18.1855 24.8284 21.5972 22.8535C23.067 22.0027 22.9517 19.7257 23.3894 18.0853C23.6709 17.0298 24.2591 16.0815 25.0797 15.3602C25.9002 14.639 26.9163 14.1772 27.9993 14.0333C29.0823 13.8895 30.1837 14.07 31.1641 14.552C32.1446 15.0339 32.96 15.7958 33.5074 16.7412" fill="Black"/>
<path d="M1.36672 3.24716C1.91408 2.30176 2.72952 1.53988 3.70994 1.05786C4.69036 0.575847 5.79172 0.395342 6.87474 0.539185C7.95776 0.683028 8.9738 1.14476 9.79437 1.86598C10.6149 2.58719 11.2032 3.53552 11.4847 4.59101C11.9221 6.23155 11.8072 8.5086 13.2769 9.35913C16.6889 11.334 17.8074 8.38702 20.8885 10.1706C21.7531 10.6696 22.384 11.4917 22.6424 12.4559C22.9008 13.4201 22.7656 14.4474 22.2664 15.3119C22.0193 15.7399 21.6902 16.1151 21.298 16.416C20.9059 16.7169 20.4583 16.9376 19.9808 17.0655C19.0165 17.3239 17.989 17.1887 17.1244 16.6896C14.0387 14.913 16.0324 12.4712 12.6158 10.5039C11.1442 9.65664 9.22991 10.8949 7.58983 11.3363C6.53485 11.6202 5.41936 11.585 4.3844 11.2351C3.34944 10.8852 2.44149 10.2362 1.77538 9.37039C1.10927 8.50453 0.714899 7.46062 0.642147 6.37066C0.569395 5.2807 0.821524 4.19365 1.36665 3.24697L1.36672 3.24716Z" fill="Black"/>
<path d="M1.36672 3.24716C1.91408 2.30176 2.72952 1.53988 3.70994 1.05786C4.69036 0.575847 5.79172 0.395342 6.87474 0.539185C7.95776 0.683028 8.9738 1.14476 9.79437 1.86598C10.6149 2.58719 11.2032 3.53552 11.4847 4.59101C11.9221 6.23155 11.8072 8.5086 13.2769 9.35913C16.6889 11.334 17.8074 8.38702 20.8885 10.1706C21.7531 10.6696 22.384 11.4917 22.6424 12.4559C22.9008 13.4201 22.7656 14.4474 22.2664 15.3119C22.0193 15.7399 21.6902 16.1151 21.298 16.416C20.9059 16.7169 20.4583 16.9376 19.9808 17.0655C19.0165 17.3239 17.989 17.1887 17.1244 16.6896C14.0387 14.913 16.0324 12.4712 12.6158 10.5039C11.1442 9.65664 9.22991 10.8949 7.58983 11.3363C6.53485 11.6202 5.41936 11.585 4.3844 11.2351C3.34944 10.8852 2.44149 10.2362 1.77538 9.37039C1.10927 8.50453 0.714899 7.46062 0.642147 6.37066C0.569395 5.2807 0.821524 4.19365 1.36665 3.24697L1.36672 3.24716Z" fill="Black"/>
<path d="M96.7124 18.5033C96.7124 11.1597 102.256 5.26459 109.882 5.26459C115.146 5.26459 119.255 7.87925 121.476 11.6432C121.511 11.7028 121.52 11.7735 121.503 11.8402C121.486 11.9069 121.444 11.9642 121.385 11.9998L117.528 14.3382C117.498 14.3561 117.465 14.3679 117.43 14.3727C117.396 14.3776 117.36 14.3755 117.326 14.3665C117.293 14.3575 117.261 14.3418 117.233 14.3204C117.206 14.299 117.183 14.2723 117.165 14.2418C115.575 11.4669 113.181 10.0301 109.918 10.0301C105.222 10.0301 101.585 13.8785 101.585 18.5034C101.585 23.2337 105.151 26.976 110.094 26.976C113.704 26.976 116.295 25.006 117.299 21.9208C117.312 21.8814 117.315 21.8394 117.309 21.7983C117.303 21.7572 117.287 21.7182 117.263 21.6844C117.239 21.6506 117.207 21.623 117.17 21.604C117.133 21.5849 117.092 21.5748 117.05 21.5746H109.58C109.511 21.5745 109.444 21.5469 109.395 21.4978C109.346 21.4487 109.318 21.3821 109.318 21.3127V17.1403C109.318 17.1059 109.325 17.0719 109.338 17.0402C109.351 17.0084 109.371 16.9796 109.395 16.9553C109.419 16.931 109.448 16.9118 109.48 16.8986C109.512 16.8855 109.546 16.8788 109.58 16.8788H122.438C122.473 16.8788 122.507 16.8855 122.539 16.8986C122.57 16.9118 122.599 16.931 122.623 16.9553C122.648 16.9796 122.667 17.0084 122.68 17.0402C122.693 17.0719 122.7 17.1059 122.7 17.1403V18.856C122.7 25.7754 117.757 31.7417 110.095 31.7417C102.044 31.7417 96.7128 25.6342 96.7128 18.5031" fill="Black"/>
<path d="M124.872 6.03247H129.187C129.221 6.03246 129.255 6.03923 129.287 6.0524C129.319 6.06556 129.347 6.08487 129.372 6.1092C129.396 6.13354 129.415 6.16242 129.428 6.1942C129.442 6.22599 129.448 6.26005 129.448 6.29444V31.1279C129.448 31.1622 129.441 31.1962 129.428 31.228C129.415 31.2597 129.396 31.2886 129.372 31.3129C129.347 31.3372 129.318 31.3564 129.287 31.3696C129.255 31.3827 129.221 31.3894 129.187 31.3894H124.872C124.803 31.3893 124.737 31.3617 124.688 31.3127C124.639 31.2637 124.611 31.1972 124.611 31.1279V6.29444C124.611 6.22503 124.638 6.15846 124.687 6.10934C124.736 6.06023 124.803 6.03258 124.872 6.03247" fill="Black"/>
<path d="M131.089 22.5628C131.089 17.4791 135.149 13.3841 140.234 13.3841C145.318 13.3841 149.379 17.479 149.379 22.5628C149.379 27.6465 145.318 31.7417 140.234 31.7417C135.15 31.7417 131.089 27.6465 131.089 22.5628ZM144.683 22.5628C144.683 20.056 142.705 17.9735 140.234 17.9735C137.726 17.9735 135.82 20.0558 135.82 22.5628C135.82 25.0698 137.726 27.1523 140.234 27.1523C142.705 27.1523 144.683 25.0694 144.683 22.5628" fill="Black"/>
<path d="M192.557 6.03247H196.871C196.906 6.03242 196.94 6.03916 196.972 6.05231C197.003 6.06545 197.032 6.08474 197.057 6.10908C197.081 6.13342 197.1 6.16232 197.113 6.19413C197.127 6.22594 197.133 6.26003 197.133 6.29444V31.1279C197.133 31.1622 197.126 31.1963 197.113 31.2281C197.1 31.2598 197.081 31.2887 197.056 31.313C197.032 31.3373 197.003 31.3565 196.971 31.3697C196.94 31.3828 196.906 31.3895 196.871 31.3894H192.557C192.487 31.3894 192.421 31.3619 192.372 31.3128C192.322 31.2638 192.295 31.1972 192.295 31.1279V6.29444C192.295 6.22503 192.322 6.15846 192.372 6.10934C192.421 6.06023 192.487 6.03258 192.557 6.03247" fill="Black"/>
<path d="M71.0312 13.6613V18.1876C71.0309 18.224 71.023 18.26 71.0082 18.2933C70.9933 18.3266 70.9717 18.3564 70.9447 18.3809C70.9178 18.4054 70.886 18.4241 70.8515 18.4358C70.8169 18.4475 70.7804 18.4519 70.7441 18.4487C68.4301 18.2828 65.6652 19.401 65.6652 22.9589V31.1333C65.6652 31.2029 65.6375 31.2696 65.5883 31.3189C65.5391 31.3681 65.4724 31.3958 65.4028 31.3958H61.3732C61.3036 31.3958 61.2369 31.3681 61.1877 31.3189C61.1385 31.2696 61.1108 31.2029 61.1108 31.1333V14.0085C61.1108 13.9389 61.1385 13.8721 61.1877 13.8228C61.2369 13.7736 61.3036 13.7459 61.3732 13.7458H65.4027C65.4723 13.7459 65.5391 13.7736 65.5883 13.8228C65.6375 13.8721 65.6651 13.9389 65.6651 14.0085V16.7813C66.5458 14.4778 68.6303 13.4745 70.7628 13.3973C70.7979 13.3966 70.8327 13.4028 70.8654 13.4157C70.898 13.4287 70.9277 13.448 70.9527 13.4726C70.9777 13.4972 70.9975 13.5265 71.011 13.5589C71.0245 13.5913 71.0313 13.6261 71.0311 13.6611" fill="Black"/>
<path d="M73.7231 13.7457H77.752C77.7865 13.7457 77.8207 13.7524 77.8526 13.7656C77.8844 13.7788 77.9134 13.7981 77.9378 13.8225C77.9623 13.8469 77.9816 13.8758 77.9948 13.9077C78.0081 13.9396 78.0149 13.9738 78.0149 14.0083V31.1332C78.0148 31.2028 77.9871 31.2696 77.9378 31.3189C77.8885 31.3681 77.8217 31.3957 77.752 31.3957H73.7231C73.6534 31.3957 73.5867 31.368 73.5374 31.3188C73.4882 31.2696 73.4605 31.2028 73.4604 31.1332V14.0081C73.4604 13.9385 73.4881 13.8717 73.5374 13.8224C73.5866 13.7732 73.6534 13.7455 73.7231 13.7455" fill="Black"/>
<path d="M80.1741 26.8846L84.3081 25.2751C84.3717 25.2511 84.442 25.2526 84.5045 25.279C84.5671 25.3055 84.617 25.355 84.644 25.4173C85.3138 26.8817 86.6072 27.5834 88.2516 27.5834C89.8403 27.5834 90.6878 26.8421 90.6878 25.9951C90.6878 25.0418 88.9581 24.7595 86.91 24.3711C83.7328 23.8063 80.5552 22.7119 80.5552 18.9348C80.5552 15.9696 83.4147 13.3221 87.7925 13.3931C91.6092 13.3931 93.8469 14.906 95.1412 17.2329C95.1586 17.2651 95.1691 17.3007 95.1719 17.3373C95.1748 17.3739 95.1699 17.4106 95.1577 17.4452C95.1454 17.4798 95.126 17.5114 95.1008 17.538C95.0756 17.5647 95.0451 17.5857 95.0112 17.5998L91.2417 19.1887C91.1813 19.2149 91.1132 19.217 91.0513 19.1948C90.9894 19.1725 90.9382 19.1275 90.9083 19.0689C90.391 18.0268 89.2442 17.3468 87.7575 17.3468C86.1685 17.3468 85.4629 18.0174 85.4629 18.7939C85.4629 19.5704 86.4867 19.853 89.1344 20.3824C92.0996 20.9823 95.5247 22.0415 95.5247 25.854C95.5247 28.4309 93.1236 31.8197 88.0399 31.7494C83.8846 31.7494 81.3327 30.1793 80.0269 27.2347C80.0128 27.2022 80.0055 27.1672 80.0054 27.1318C80.0052 27.0964 80.0122 27.0613 80.0259 27.0286C80.0396 26.996 80.0598 26.9664 80.0852 26.9417C80.1106 26.917 80.1407 26.8977 80.1737 26.8849" fill="Black"/>
<path d="M72.7788 8.59188C72.7788 7.00797 74.0988 5.68817 75.7207 5.68817C76.4889 5.69483 77.2237 6.00289 77.7669 6.546C78.3101 7.0891 78.6183 7.8238 78.625 8.59188C78.625 10.1759 77.305 11.5333 75.7207 11.5333C74.0988 11.5333 72.7788 10.1759 72.7788 8.59188Z" fill="Black"/>
<path d="M199.534 31.5877C199.035 31.5877 198.655 31.2321 198.655 30.7081C198.655 30.1841 199.035 29.8289 199.534 29.8289C200.034 29.8289 200.414 30.1843 200.414 30.7081C200.414 31.232 200.034 31.5877 199.534 31.5877ZM199.534 29.9406C199.382 29.9391 199.233 29.9829 199.106 30.0663C198.978 30.1497 198.879 30.2691 198.82 30.4092C198.76 30.5493 198.744 30.7038 198.773 30.8532C198.802 31.0026 198.874 31.1401 198.981 31.2481C199.088 31.3562 199.225 31.4301 199.374 31.4603C199.523 31.4905 199.678 31.4758 199.819 31.4179C199.959 31.36 200.08 31.2616 200.164 31.1352C200.249 31.0089 200.294 30.8602 200.294 30.7081C200.298 30.6069 200.281 30.506 200.244 30.4116C200.208 30.3172 200.152 30.2314 200.081 30.1594C200.01 30.0875 199.924 30.0309 199.83 29.9933C199.736 29.9557 199.635 29.9377 199.534 29.9406V29.9406ZM199.7 30.7617L199.917 31.1782H199.765L199.556 30.7715H199.347V31.1782H199.217V30.2063H199.612C199.788 30.2063 199.924 30.2942 199.924 30.4863C199.926 30.5516 199.905 30.6155 199.864 30.6662C199.822 30.7168 199.764 30.7508 199.7 30.7617H199.7ZM199.605 30.3207H199.347V30.6498H199.59C199.729 30.6498 199.795 30.5988 199.795 30.4865C199.795 30.3771 199.727 30.3208 199.605 30.3208" fill="Black"/>
<path d="M52.8678 26.9321H43.3643C43.3095 26.9322 43.256 26.9495 43.2115 26.9815C43.1669 27.0136 43.1336 27.0588 43.1162 27.1108L41.748 31.215C41.7306 31.2671 41.6973 31.3125 41.6526 31.3445C41.608 31.3766 41.5544 31.3938 41.4995 31.3937H36.7801C36.7384 31.3937 36.6972 31.3837 36.6601 31.3645C36.623 31.3454 36.591 31.3176 36.5668 31.2835C36.5426 31.2494 36.527 31.2101 36.5211 31.1687C36.5153 31.1274 36.5194 31.0852 36.5332 31.0458L45.0269 6.78212C45.0447 6.73095 45.078 6.68659 45.1222 6.65521C45.1664 6.62382 45.2193 6.60695 45.2735 6.60693H50.9588C51.0129 6.60699 51.0657 6.62381 51.1099 6.65508C51.1541 6.68636 51.1875 6.73055 51.2056 6.78158L59.7339 31.0454C59.7476 31.0849 59.7518 31.127 59.7459 31.1684C59.7401 31.2098 59.7244 31.2492 59.7002 31.2833C59.676 31.3173 59.644 31.3452 59.6069 31.3644C59.5698 31.3836 59.5286 31.3936 59.4868 31.3937H54.7324C54.6775 31.3938 54.624 31.3765 54.5795 31.3444C54.5349 31.3124 54.5016 31.2671 54.4843 31.215L53.1163 27.1108C53.0988 27.0587 53.0654 27.0135 53.0208 26.9814C52.9762 26.9493 52.9226 26.9321 52.8677 26.9321H52.8678ZM51.4179 22.0193L48.3813 12.9757C48.3639 12.9237 48.3306 12.8786 48.2861 12.8466C48.2416 12.8146 48.1882 12.7973 48.1334 12.7973C48.0786 12.7973 48.0251 12.8146 47.9806 12.8466C47.9362 12.8786 47.9028 12.9237 47.8854 12.9757L44.8492 22.0193C44.8361 22.0587 44.8326 22.1006 44.8388 22.1416C44.8451 22.1827 44.861 22.2216 44.8853 22.2553C44.9096 22.2889 44.9415 22.3164 44.9784 22.3353C45.0154 22.3542 45.0563 22.364 45.0978 22.364H51.1697C51.2112 22.364 51.252 22.3541 51.2889 22.3351C51.3258 22.3162 51.3577 22.2888 51.3819 22.2551C51.4061 22.2215 51.422 22.1825 51.4283 22.1415C51.4345 22.1005 51.431 22.0587 51.4179 22.0193" fill="Black"/>
<path d="M189.56 13.7385H185.242C185.172 13.7385 185.105 13.7662 185.056 13.8153C185.007 13.8645 184.979 13.9312 184.979 14.0008V15.2962C184.979 15.3101 184.975 15.3237 184.968 15.3353C184.96 15.3469 184.949 15.3559 184.936 15.3612C184.923 15.3665 184.909 15.3678 184.895 15.3649C184.882 15.362 184.869 15.3552 184.86 15.3451C183.693 14.1764 181.937 13.3851 179.719 13.3851C175.729 13.3851 171.14 16.3152 171.14 22.5634C171.14 28.7761 175.906 31.7412 179.648 31.7412C181.864 31.7412 183.685 30.8524 184.857 29.5514C184.866 29.5407 184.878 29.5331 184.892 29.5297C184.906 29.5262 184.92 29.527 184.934 29.5321C184.947 29.5371 184.959 29.5461 184.967 29.5578C184.975 29.5695 184.979 29.5834 184.979 29.5977V31.1258C184.979 31.1603 184.986 31.1945 184.999 31.2264C185.012 31.2583 185.031 31.2872 185.056 31.3116C185.08 31.336 185.109 31.3554 185.141 31.3686C185.173 31.3818 185.207 31.3887 185.241 31.3887H189.553C189.587 31.3887 189.621 31.3819 189.653 31.3687C189.685 31.3555 189.714 31.3361 189.739 31.3117C189.763 31.2873 189.782 31.2583 189.796 31.2264C189.809 31.1945 189.816 31.1603 189.816 31.1258H189.822V14.0005C189.822 13.966 189.816 13.9319 189.802 13.9C189.789 13.8682 189.77 13.8393 189.745 13.8149C189.721 13.7905 189.692 13.7712 189.66 13.7581C189.628 13.7449 189.594 13.7381 189.56 13.7382V13.7385ZM185.074 23.2314C184.766 25.516 182.975 27.293 180.601 27.293C177.918 27.293 175.87 25.2458 175.87 22.5274C175.87 20.3732 177.157 18.6626 179.026 18.0456C182.296 16.9655 185.533 19.8184 185.074 23.2313" fill="Black"/>
<path d="M151.019 6.30275V31.1254H151.026C151.026 31.1598 151.033 31.194 151.046 31.2258C151.059 31.2577 151.078 31.2866 151.103 31.311C151.127 31.3354 151.156 31.3547 151.188 31.3679C151.22 31.3811 151.254 31.3879 151.289 31.3879H155.6C155.635 31.3879 155.669 31.3811 155.701 31.3679C155.732 31.3547 155.761 31.3354 155.786 31.311C155.81 31.2866 155.829 31.2577 155.843 31.2258C155.856 31.194 155.863 31.1598 155.863 31.1254V29.5971C155.863 29.5828 155.867 29.5689 155.875 29.5572C155.883 29.5454 155.894 29.5365 155.908 29.5315C155.921 29.5264 155.936 29.5256 155.949 29.5291C155.963 29.5326 155.976 29.5403 155.985 29.5511C157.157 30.852 158.978 31.7409 161.194 31.7409C164.936 31.7409 169.702 28.7756 169.702 22.563C169.702 16.3148 165.112 13.3849 161.123 13.3849C158.905 13.3849 157.149 14.1762 155.982 15.3446C155.972 15.3546 155.96 15.3615 155.946 15.3644C155.932 15.3673 155.918 15.366 155.905 15.3608C155.893 15.3555 155.882 15.3465 155.874 15.335C155.866 15.3234 155.862 15.3098 155.862 15.2959V6.30275C155.862 6.26826 155.856 6.23411 155.842 6.20224C155.829 6.17037 155.81 6.14141 155.786 6.11702C155.761 6.09262 155.732 6.07327 155.7 6.06006C155.668 6.04686 155.634 6.04005 155.6 6.04004H151.282C151.247 6.04002 151.213 6.04681 151.181 6.06001C151.149 6.0732 151.12 6.09256 151.096 6.11696C151.071 6.14136 151.052 6.17033 151.039 6.20221C151.026 6.23409 151.019 6.26825 151.019 6.30275H151.019ZM161.816 18.0456C163.685 18.6627 164.971 20.3735 164.971 22.5276C164.971 25.2459 162.923 27.2932 160.24 27.2932C157.867 27.2932 156.076 25.5158 155.768 23.2313C155.308 19.8183 158.545 16.9657 161.816 18.0457" fill="Black"/>
</svg>