<svg width="118" height="23" viewBox="0 0 118 23" fill="none" xmlns="http://www.w3.org/2000/svg">
<path d="M0.167976 17.4501H11.4237V15.3864H2.41449V0.451336H0.167976V17.4501Z" fill="white"/>
<path d="M15.2328 5.2818H12.9863V17.4501H15.2328V5.2818Z" fill="white"/>
<path d="M19.4262 17.4501H21.557V7.13676H25.4247V5.2818H21.557V4.22281C21.557 2.48406 21.9936 2.37419 23.595 2.27805H25.3783V0.469461H23.5024C20.7927 0.469461 19.4262 1.09258 19.4262 4.31556V5.2818H16.5776V7.13676H19.4262V17.4501Z" fill="white"/>
<path d="M38.2217 14.6676L36.3457 13.601C35.5815 14.9227 34.4466 15.8038 32.478 15.8038C29.6989 15.8038 28.2166 14.1343 28.0313 11.5374H38.4996V10.8418C38.4996 7.15504 36.4847 4.2103 32.4317 4.2103C28.3093 4.2103 25.8543 7.34054 25.8543 11.0504C25.8543 14.7835 28.0545 17.6819 32.5012 17.6819C35.4425 17.6819 37.2027 16.2907 38.2217 14.6676ZM32.4317 6.06526C34.933 6.06526 36.1605 7.73472 36.2994 10.0998H28.0777C28.3556 7.66516 29.8841 6.06526 32.4317 6.06526Z" fill="white"/>
<path d="M39.9742 14.5517C41.5491 16.8704 43.843 17.7051 47.2012 17.7051C51.1384 17.7051 53.3154 15.5719 53.3154 12.7199C53.3154 9.28824 50.212 8.59263 47.3402 8.08252C44.7 7.59559 42.4998 7.20142 42.4998 5.11459C42.4998 3.63063 43.6578 2.33216 46.2053 2.33216C48.8224 2.33216 50.2815 3.3292 51.4858 5.2769L53.4544 3.79294C51.81 1.45106 49.6562 0.245331 46.4138 0.245331C42.4766 0.245331 40.3459 2.47128 40.3459 5.06822C40.3459 8.40714 43.2409 9.10275 46.2053 9.63605C48.7298 10.0998 51.1616 10.5171 51.1616 12.6967C51.1616 14.343 49.8415 15.5951 47.3865 15.5951C44.8389 15.5951 43.0889 14.8892 41.8502 12.9982L39.9742 14.5517Z" fill="white"/>
<path d="M67.8399 10.865C67.8399 6.36669 65.1997 4.25668 62.212 4.25668C60.0813 4.25668 58.2054 5.40266 57.2558 7.48949L57.3005 4.46536H55.0093V22.2344H57.2558V14.5517C58.1127 16.4762 59.7571 17.6355 62.0499 17.6355C65.2228 17.6355 67.8399 15.2241 67.8399 10.865ZM61.4478 15.7574C58.5064 15.7574 57.0705 13.6706 57.0705 10.9577C57.0705 8.2912 58.5528 6.11163 61.3783 6.11163C63.9027 6.11163 65.5702 7.80428 65.5702 10.9113C65.5702 13.9024 64.0417 15.7574 61.4478 15.7574Z" fill="white"/>
<path d="M69.5475 17.45H71.794V11.2127C71.794 7.89701 73.4615 6.08843 75.7543 6.08843C78.3251 6.08843 79.1588 7.78108 79.1588 10.1925V17.45H81.3822V9.68241C81.3822 6.45942 79.8305 4.21029 76.6344 4.21029C74.3647 4.21029 72.6509 5.4392 71.7708 7.82745L71.8155 0.462815H69.5475V17.45Z" fill="white"/>
<path d="M95.3733 14.6676L93.4974 13.601C92.7331 14.9227 91.5982 15.8038 89.6296 15.8038C86.8504 15.8038 85.3682 14.1343 85.1829 11.5374H95.6512V10.8418C95.6512 7.15504 93.6363 4.2103 89.5833 4.2103C85.4609 4.2103 83.0059 7.34054 83.0059 11.0504C83.0059 14.7835 85.2061 17.6819 89.6528 17.6819C92.5941 17.6819 94.3543 16.2907 95.3733 14.6676ZM89.5833 6.06526C92.0846 6.06526 93.3121 7.73472 93.451 10.0998H85.2293C85.5072 7.66516 87.0357 6.06526 89.5833 6.06526Z" fill="white"/>
<path d="M103.334 4.27986C101.388 4.27986 100.115 5.36965 99.5124 7.78109L100.002 4.46536H97.289V17.4501H99.5356V11.0504C99.5356 7.7579 100.948 6.27394 102.755 6.27394C103.681 6.27394 104.118 6.40655 104.767 6.8471L105.316 5.91454L105.941 4.98198C105.339 4.61099 104.376 4.27986 103.334 4.27986Z" fill="white"/>
<path d="M117.714 14.6676L115.838 13.601C115.073 14.9227 113.938 15.8038 111.97 15.8038C109.191 15.8038 107.708 14.1343 107.523 11.5374H117.991V10.8418C117.991 7.15504 115.977 4.2103 111.924 4.2103C107.801 4.2103 105.346 7.34054 105.346 11.0504C105.346 14.7835 107.546 17.6819 111.993 17.6819C114.934 17.6819 116.695 16.2907 117.714 14.6676ZM111.924 6.06526C114.425 6.06526 115.652 7.73472 115.791 10.0998H107.57C107.847 7.66516 109.376 6.06526 111.924 6.06526Z" fill="white"/>
<path d="M15.2328 0.458203H12.9863V2.70832H15.2328V0.458203Z" fill="white"/>
</svg>
