<svg width="26" height="28" viewBox="0 0 26 28" fill="none" xmlns="http://www.w3.org/2000/svg">
<path fill-rule="evenodd" clip-rule="evenodd" d="M12.041 24.5289C13.5051 26.6896 15.4053 28 17.4428 28C21.9016 28 25.3248 21.7282 25.3248 13.9978C25.3248 6.2674 21.9016 0 17.4428 0C15.4271 0 13.5444 1.27986 12.0868 3.39807C17.2313 4.11322 21.1941 8.56767 21.1941 13.9564C21.1941 19.3451 17.2084 23.829 12.041 24.5289Z" fill="white"/>
<path fill-rule="evenodd" clip-rule="evenodd" d="M12.041 24.5289C10.2967 21.9626 9.18041 18.195 9.18041 13.9978C9.18041 9.76468 10.3218 5.97197 12.0868 3.40679C11.605 3.33967 11.119 3.30615 10.6325 3.30649C4.8001 3.30649 0.0709305 8.07818 0.0709305 13.9651C0.0709305 19.852 4.8001 24.6237 10.6325 24.6237C11.1036 24.6236 11.5742 24.5919 12.041 24.5289Z" fill="white"/>
</svg>
